<?xml version="1.0" encoding="UTF-8" standalone="no"?>
<!-- Uploaded to: SVG Repo, www.svgrepo.com, Generator: SVG Repo Mixer Tools -->

<svg
   fill="#000000"
   width="800px"
   height="800px"
   viewBox="0 0 32 32"
   id="icon"
   version="1.1"
   sodipodi:docname="request-quote-svgrepo-com.svg"
   inkscape:version="1.3.2 (091e20e, 2023-11-25)"
   xmlns:inkscape="http://www.inkscape.org/namespaces/inkscape"
   xmlns:sodipodi="http://sodipodi.sourceforge.net/DTD/sodipodi-0.dtd"
   xmlns="http://www.w3.org/2000/svg"
   xmlns:svg="http://www.w3.org/2000/svg">
  <sodipodi:namedview
     id="namedview2"
     pagecolor="#ffffff"
     bordercolor="#000000"
     borderopacity="0.25"
     inkscape:showpageshadow="2"
     inkscape:pageopacity="0.0"
     inkscape:pagecheckerboard="0"
     inkscape:deskcolor="#d1d1d1"
     inkscape:zoom="0.72124892"
     inkscape:cx="319.58454"
     inkscape:cy="443.67484"
     inkscape:window-width="1850"
     inkscape:window-height="1016"
     inkscape:window-x="70"
     inkscape:window-y="1107"
     inkscape:window-maximized="1"
     inkscape:current-layer="icon" />
  <defs
     id="defs1">
    <style
       id="style1">.cls-1{fill:none;}</style>
  </defs>
  <title
     id="title1">request-quote</title>
  <path
     d="M22,22v6H6V4H16V2H6A2,2,0,0,0,4,4V28a2,2,0,0,0,2,2H22a2,2,0,0,0,2-2V22Z"
     transform="translate(0)"
     id="path1"
     style="fill:#ffffff" />
  <path
     d="M29.54,5.76l-3.3-3.3a1.6,1.6,0,0,0-2.24,0l-14,14V22h5.53l14-14a1.6,1.6,0,0,0,0-2.24ZM14.7,20H12V17.3l9.44-9.45,2.71,2.71ZM25.56,9.15,22.85,6.44l2.27-2.27,2.71,2.71Z"
     transform="translate(0)"
     id="path2"
     style="fill:#ffffff" />
  <rect
     id="_Transparent_Rectangle_"
     data-name="&lt;Transparent Rectangle&gt;"
     class="cls-1"
     width="32"
     height="32" />
</svg>
